Motion_pl01
version=1
nRows=13
nColumns=43
inDegrees=yes
endheader
time	pelvis_tilt	pelvis_list	pelvis_rotation	pelvis_tx	pelvis_ty	pelvis_tz	hip_flexion_r	hip_adduction_r	hip_rotation_r	knee_angle_r	ankle_angle_r	subtalar_angle_r	mtp_angle_r	hip_flexion_l	hip_adduction_l	hip_rotation_l	knee_angle_l	ankle_angle_l	subtalar_angle_l	mtp_angle_l	lumbar_extension	lumbar_bending	lumbar_rotation	neck_flexion	neck_lateral_bending	neck_rotation	arm_flex_r	arm_add_r	arm_rot_r	elbow_flex_r	pro_sup_r	wrist_flex_r	wrist_dev_r	hand_finger_flex_r	arm_flex_l	arm_add_l	arm_rot_l	elbow_flex_l	pro_sup_l	wrist_flex_l	wrist_dev_l	hand_finger_flex_l
      4.39750000	     -1.10887254	      5.23520525	     92.24016200	     -0.01971117	      0.57404482	      0.50365147	     68.65035895	     -2.22233536	      0.93002449	   -110.34742855	      3.83456553	     -1.09955843	     33.39435366	     64.97224340	     -5.72873382	      0.03370455	   -111.30048225	     22.91569449	      3.86452107	     23.74219389	    -46.62742501	     -0.36314768	      7.16142078	     11.61144618	      6.80577189	     -9.76727169	     12.94812961	    -24.12799386	    -16.36957799	     42.57842890	    122.01645594	    -22.19787113	    -11.25314735	    -35.85470106	     -2.95265551	    -18.49658036	    -13.82266452	     56.70051343	    150.05692264	    -29.60333523	     -3.30329940	    -31.29473935
      4.40000000	     -1.34464816	      5.68547615	     92.26233499	     -0.01941826	      0.56900946	      0.50237573	     69.24012706	     -2.28273984	      1.31909097	   -111.79231509	      4.39096554	      0.50947681	     33.39210657	     65.35022987	     -5.56393387	      0.31883933	   -112.62441514	     22.59525830	      4.70164810	     23.85817726	    -47.60149684	     -0.67925380	      6.76096389	     12.16462743	      7.18844707	     -9.83049326	     14.91249904	    -24.21954745	    -15.32662351	     42.96102982	    121.90726550	    -22.82365335	    -11.41038093	    -36.19561996	     -1.03402158	    -18.56803344	    -13.43794549	     57.60735394	    150.18993704	    -30.38043751	     -3.31056665	    -31.30811626
      4.40250000	     -1.34502568	      6.02586542	     92.26268425	     -0.01890240	      0.56354174	      0.50102581	     69.87027395	     -2.22246834	      1.60730945	   -113.16276369	      4.35700288	      0.73048866	     33.39125796	     65.90830611	     -5.64887998	      0.62740131	   -114.01821004	     22.67793461	      4.74826485	     23.89813662	    -48.31804611	     -0.77996932	      6.64043080	     12.14090765	      7.25918249	     -9.82620150	     16.61070942	    -24.17571305	    -15.05423362	     43.61964168	    121.92397719	    -22.87015284	    -11.57164422	    -36.21919403	      0.94889945	    -18.50149616	    -13.22259085	     58.45558151	    150.26543949	    -30.48905967	     -3.46811520	    -31.29897559
      4.40500000	     -1.60514708	      6.33944127	     92.34602819	     -0.01866292	      0.55861820	      0.49994050	     70.57550051	     -2.38440506	      1.95017101	   -114.49759437	      5.08414389	      2.73607107	     33.37496500	     66.42474258	     -5.50999620	      0.85750971	   -115.16866400	     21.96483265	      6.19313999	     24.24859755	    -49.18663439	     -1.09697976	      6.03927427	     12.89382122	      7.75144615	     -9.78158900	     18.81829474	    -24.33888142	    -13.36297119	     43.76568773	    121.55280929	    -23.56582800	    -11.65251510	    -36.58133233	      2.79111453	    -18.63543087	    -12.88462971	     59.37744632	    150.61401130	    -31.55958425	     -3.41995479	    -31.12274986
      4.40750000	     -1.60662330	      6.50999101	     92.31692400	     -0.01799965	      0.55347756	      0.49882917	     71.30130052	     -2.29306349	      2.20589509	   -115.68348537	      4.94703027	      3.26164361	     33.36838036	     67.08199879	     -5.63921270	      1.17845261	   -116.33855877	     21.72201692	      6.49166075	     24.37991655	    -49.79206357	     -1.24051083	      5.89591902	     13.32777844	      7.74972754	     -9.70758653	     20.82095531	    -24.30726492	    -12.78541567	     44.05562965	    121.44171128	    -23.51820184	    -11.70811267	    -36.55695263	      4.85016137	    -18.79218759	    -12.38876399	     60.14294263	    150.87223247	    -31.64382413	     -3.65776013	    -30.95639882
      4.41000000	     -1.65485882	      6.66138303	     92.34802132	     -0.01758439	      0.54829402	      0.49778855	     72.05563072	     -2.33300358	      2.45106963	   -116.86131992	      4.95002997	      4.17165197	     33.35899171	     67.80560311	     -5.70011051	      1.48035234	   -117.49585066	     21.13162184	      7.21849347	     24.58090703	    -50.38725136	     -1.38435407	      5.65415371	     13.74869663	      7.98386362	     -9.72335186	     22.73607408	    -24.39056680	    -11.89977308	     44.47885502	    121.37606017	    -23.50642205	    -11.86620642	    -36.52774517	      6.83683264	    -18.86475206	    -11.99359997	     60.99590935	    151.16816078	    -31.95529277	     -3.82329146	    -30.80945079
      4.41250000	     -1.60656052	      6.87907079	     92.37193636	     -0.01701656	      0.54309350	      0.49681277	     72.70585789	     -2.29592986	      2.68186922	   -117.98477973	      4.92333563	      4.33264890	     33.35775336	     68.37875757	     -5.85812743	      1.71741057	   -118.59903446	     21.19359425	      7.26953166	     24.63023622	    -50.99145406	     -1.43753409	      5.54786079	     13.63617606	      8.04336675	     -9.72316599	     24.42670768	    -24.29267078	    -11.67629266	     45.22481204	    121.41363295	    -23.51508291	    -12.04971694	    -36.51905020	      8.83286145	    -18.76095306	    -11.81312557	     61.92082405	    151.25301246	    -32.05978053	     -3.98804042	    -30.80651161
      4.41500000	     -1.69168114	      6.88816790	     92.45563219	     -0.01682973	      0.53801469	      0.49586017	     73.54559299	     -2.46353232	      2.89946965	   -119.05802637	      4.79400862	      5.67259637	     33.34937482	     69.22087617	     -5.86235105	      2.01650578	   -119.64798697	     20.43365347	      8.28764602	     24.87634306	    -51.44036565	     -1.54773709	      5.23454420	     14.37279082	      8.21184027	     -9.68556910	     26.52001185	    -24.43525457	    -10.53557924	     45.37178632	    121.40029292	    -23.28448351	    -12.12215159	    -36.37405543	     10.89214570	    -18.99236218	    -11.10343897	     62.61810294	    151.64691896	    -32.29990483	     -4.16896912	    -30.62986998
      4.41750000	     -1.64364921	      7.07450472	     92.46868819	     -0.01628924	      0.53299880	      0.49485930	     74.17529547	     -2.46829165	      3.13241348	   -120.08610926	      4.79516354	      5.81563214	     33.34857572	     69.79957899	     -6.04007621	      2.24335906	   -120.67535733	     20.51037040	      8.32722564	     24.92526389	    -52.00332127	     -1.59042653	      5.13482725	     14.21278428	      8.26692789	     -9.68021398	     28.18532521	    -24.26679437	    -10.29598006	     46.15732180	    121.45052129	    -23.29097395	    -12.31918367	    -36.36171792	     12.87681883	    -18.83989201	    -10.92564944	     63.55374211	    151.71832554	    -32.41035483	     -4.31920553	    -30.63285173
      4.42000000	     -1.89002700	      6.97114040	     92.87186966	     -0.01705220	      0.52732645	      0.49391418	     75.21390745	     -3.08212845	      3.44328003	   -121.25485246	      5.22804409	      7.88607984	     33.33208345	     70.79631126	     -5.58499563	      2.49692673	   -121.76521307	     19.72561801	     10.03060731	     25.75731354	    -52.22754446	     -1.50236910	      4.26705402	     14.45102495	      8.55416696	     -9.39787166	     30.38972461	    -24.54269373	     -8.18442276	     46.25171800	    121.12013534	    -23.34751710	    -12.29100590	    -36.14668119	     14.64634576	    -19.08319419	    -10.28718217	     64.27228713	    152.08141314	    -33.49649146	     -3.76224065	    -30.18095687
      4.42250000	     -1.85537127	      7.02811303	     92.88806265	     -0.01638644	      0.52235727	      0.49302917	     75.88664669	     -3.07661563	      3.61674026	   -122.17997078	      4.79288898	      8.34942536	     33.32840907	     71.47110839	     -5.71215643	      2.70676242	   -122.71846427	     19.74280897	     10.07519249	     26.01104756	    -52.65666327	     -1.55348676	      4.12667130	     14.73257497	      8.44571096	     -9.18142942	     32.34203004	    -24.41254676	     -7.54660630	     46.58772568	    121.05965410	    -23.24729461	    -12.37571594	    -36.01881083	     16.72223731	    -19.30141101	     -9.60669488	     64.97924722	    152.29934761	    -33.52153054	     -3.89352634	    -29.91167887
      4.42500000	     -1.87544611	      7.09127181	     92.95960658	     -0.01609388	      0.51738296	      0.49213390	     76.56771301	     -3.20469979	      3.84015104	   -123.11165742	      4.57080705	      9.02326102	     33.32705808	     72.16561117	     -5.73545919	      2.89947978	   -123.66287929	     19.47133555	     10.29404262	     26.31683380	    -53.07139319	     -1.56981344	      3.91129475	     14.90074590	      8.47375872	     -8.98180574	     34.25183369	    -24.51179764	     -6.51588927	     46.96851449	    121.07925801	    -23.05383044	    -12.54892116	    -35.82857405	     18.78931299	    -19.46105940	     -8.91562731	     65.65221641	    152.40400677	    -33.66118751	     -3.84016944	    -29.61624382
      4.42750000	     -1.89919674	      7.15584148	     93.07215318	     -0.01583519	      0.51240818	      0.49119531	     77.23358594	     -3.36032751	      4.04512919	   -124.03687845	      4.48019819	      9.77137347	     33.32945867	     72.85681753	     -5.70318736	      3.08228872	   -124.60599504	     19.23054297	     10.44735201	     26.66632550	    -53.46038191	     -1.55658550	      3.64307569	     14.97357241	      8.48654774	     -8.76327801	     36.17247857	    -24.54556323	     -5.47333144	     47.31373228	    121.03239346	    -22.88694219	    -12.66578156	    -35.64459423	     20.82442130	    -19.65539582	     -8.16798004	     66.32354753	    152.40914458	    -33.87486199	     -3.67776587	    -29.30828210
